# This file uses centimeters as units for non-parametric coordinates.

v -3.000000 -1.000000 3.000000
v -2.000000 -1.000000 3.000000
v -1.000000 -1.000000 3.000000
v -3.000000 1.500000 3.000000
v -2.000000 2.000000 3.000000
v -1.000000 1.500000 3.000000
v -3.000000 1.500000 1.000000
v -2.000000 2.000000 1.000000
v -1.000000 1.500000 1.000000
v -3.000000 1.500000 -1.000000
v -2.000000 2.000000 -1.000000
v -1.000000 1.500000 -1.000000
v -3.000000 -1.000000 -1.000000
v -2.000000 -1.000000 -1.000000
v -1.000000 -1.000000 -1.000000
v -3.000000 -1.000000 1.000000
v -2.000000 -1.000000 1.000000
v -1.000000 -1.000000 1.000000
v 3.750000 -1.000000 -1.000000
v 3.750000 -1.000000 1.000000
v 3.750000 1.500000 -1.000000
v 3.750000 1.500000 1.000000
v 3.750000 -1.000000 0.000000
v 3.750000 2.000000 0.000000
v -1.000000 2.000000 0.000000
v -2.000000 2.000000 0.000000
v -0.750000 -1.000000 -0.875000
v -0.500000 -1.000000 -0.875000
v -0.250000 -1.000000 -0.875000
v -0.750000 2.250000 -0.875000
v -0.500000 2.250000 -0.875000
v -0.250000 2.000000 -0.875000
v -0.750000 2.250000 -1.125000
v -0.500000 2.250000 -1.125000
v -0.250000 2.000000 -1.125000
v -0.750000 -1.000000 -1.125000
v -0.500000 -1.000000 -1.125000
v -0.250000 -1.000000 -1.125000
v -1.000000 -0.750000 2.000000
v 1.000000 -0.750000 2.000000
v -1.000000 0.250000 2.000000
v 1.000000 0.250000 2.000000
v -1.000000 0.250000 1.000000
v 1.000000 0.250000 1.000000
v -1.000000 -0.750000 1.000000
v 1.000000 -0.750000 1.000000
v -2.750000 0.000000 3.050000
v -1.250000 0.000000 3.050000
v -2.750000 1.000000 3.050000
v -1.250000 1.000000 3.050000
v -2.750000 1.000000 2.950000
v -1.250000 1.000000 2.950000
v -2.750000 0.000000 2.950000
v -1.250000 0.000000 2.950000
v -0.200000 0.125000 1.050000
v 0.200000 0.125000 1.050000
v -0.200000 0.875000 1.050000
v 0.200000 0.875000 1.050000
v -0.200000 0.875000 0.950000
v 0.200000 0.875000 0.950000
v -0.200000 0.125000 0.950000
v 0.200000 0.125000 0.950000
vt 0.375000 0.000000
vt 0.500000 0.000000
vt 0.625000 0.000000
vt 0.375000 0.250000
vt 0.500000 0.250000
vt 0.625000 0.250000
vt 0.375000 0.375000
vt 0.500000 0.375000
vt 0.625000 0.375000
vt 0.375000 0.500000
vt 0.500000 0.500000
vt 0.625000 0.500000
vt 0.375000 0.750000
vt 0.500000 0.750000
vt 0.625000 0.750000
vt 0.375000 0.875000
vt 0.500000 0.875000
vt 0.625000 0.875000
vt 0.375000 1.000000
vt 0.500000 1.000000
vt 0.625000 1.000000
vt 0.875000 0.000000
vt 0.750000 0.000000
vt 0.875000 0.250000
vt 0.750000 0.250000
vt 0.125000 0.000000
vt 0.250000 0.000000
vt 0.125000 0.250000
vt 0.250000 0.250000
vt 0.750000 0.000000
vt 0.875000 0.000000
vt 0.875000 0.250000
vt 0.750000 0.250000
vt 0.812500 0.000000
vt 0.812500 0.250000
vt 0.625000 0.437500
vt 0.812500 0.250000
vt 0.500000 0.437500
vt 0.375000 0.000000
vt 0.500000 0.000000
vt 0.500000 0.250000
vt 0.375000 0.250000
vt 0.625000 0.000000
vt 0.625000 0.250000
vt 0.500000 0.500000
vt 0.375000 0.500000
vt 0.625000 0.500000
vt 0.500000 0.750000
vt 0.375000 0.750000
vt 0.625000 0.750000
vt 0.500000 1.000000
vt 0.375000 1.000000
vt 0.625000 1.000000
vt 0.875000 0.000000
vt 0.875000 0.250000
vt 0.125000 0.000000
vt 0.125000 0.250000
vt 0.375000 0.000000
vt 0.625000 0.000000
vt 0.625000 0.250000
vt 0.375000 0.250000
vt 0.625000 0.500000
vt 0.375000 0.500000
vt 0.625000 0.750000
vt 0.375000 0.750000
vt 0.625000 1.000000
vt 0.375000 1.000000
vt 0.875000 0.000000
vt 0.875000 0.250000
vt 0.125000 0.000000
vt 0.125000 0.250000
vt 0.375000 0.000000
vt 0.625000 0.000000
vt 0.625000 0.250000
vt 0.375000 0.250000
vt 0.625000 0.500000
vt 0.375000 0.500000
vt 0.625000 0.750000
vt 0.375000 0.750000
vt 0.625000 1.000000
vt 0.375000 1.000000
vt 0.875000 0.000000
vt 0.875000 0.250000
vt 0.125000 0.000000
vt 0.125000 0.250000
vt 0.375000 0.000000
vt 0.625000 0.000000
vt 0.625000 0.250000
vt 0.375000 0.250000
vt 0.625000 0.500000
vt 0.375000 0.500000
vt 0.625000 0.750000
vt 0.375000 0.750000
vt 0.625000 1.000000
vt 0.375000 1.000000
vt 0.875000 0.000000
vt 0.875000 0.250000
vt 0.125000 0.000000
vt 0.125000 0.250000
vn 0.000000 0.000000 1.000000
vn 0.000000 0.000000 1.000000
vn 0.000000 0.000000 1.000000
vn 0.000000 0.000000 1.000000
vn 0.000000 0.000000 1.000000
vn 0.000000 0.000000 1.000000
vn -0.447214 0.894427 0.000000
vn 0.000000 1.000000 0.000000
vn -0.106466 0.993683 0.035489
vn -0.447214 0.894427 0.000000
vn 0.447214 0.894427 0.000000
vn 0.389494 0.918388 0.069700
vn -0.242536 0.970143 0.000000
vn -0.241747 0.966988 -0.080582
vn -0.447214 0.894427 0.000000
vn 0.242536 0.970143 0.000000
vn 0.000000 0.000000 -1.000000
vn 0.000000 0.000000 -1.000000
vn 0.000000 0.000000 -1.000000
vn 0.000000 0.000000 -1.000000
vn 0.000000 0.000000 -1.000000
vn 0.000000 0.000000 -1.000000
vn 0.000000 -1.000000 0.000000
vn 0.000000 -1.000000 0.000000
vn 0.000000 -1.000000 0.000000
vn 0.000000 -1.000000 0.000000
vn 0.000000 -1.000000 0.000000
vn 0.000000 -1.000000 0.000000
vn 0.000000 -1.000000 0.000000
vn 0.000000 -1.000000 0.000000
vn 0.000000 -1.000000 0.000000
vn 1.000000 0.000000 0.000000
vn 1.000000 0.000000 0.000000
vn 1.000000 0.000000 0.000000
vn 1.000000 0.000000 0.000000
vn 1.000000 0.000000 0.000000
vn 1.000000 0.000000 0.000000
vn 1.000000 0.000000 0.000000
vn 1.000000 0.000000 0.000000
vn -1.000000 0.000000 0.000000
vn -1.000000 0.000000 0.000000
vn -1.000000 0.000000 0.000000
vn -1.000000 0.000000 0.000000
vn -1.000000 0.000000 0.000000
vn -1.000000 0.000000 0.000000
vn 0.000000 -1.000000 0.000000
vn 0.000000 -1.000000 0.000000
vn 0.000000 -1.000000 0.000000
vn 0.000000 -1.000000 0.000000
vn 0.000000 -1.000000 0.000000
vn 0.000000 0.000000 -1.000000
vn 0.000000 0.000000 -1.000000
vn 0.000000 0.000000 -1.000000
vn 0.000000 0.000000 -1.000000
vn 0.000000 1.000000 0.000000
vn 0.000000 1.000000 0.000000
vn 0.000000 0.894427 0.447214
vn 0.000000 0.894427 0.447214
vn 0.000000 0.000000 1.000000
vn 0.000000 0.000000 1.000000
vn 0.000000 0.000000 1.000000
vn 0.000000 0.000000 1.000000
vn 1.000000 0.000000 0.000000
vn 1.000000 0.000000 0.000000
vn 0.000000 0.894427 -0.447214
vn 0.000000 0.894427 -0.447214
vn 0.235702 0.942809 -0.235702
vn 0.000000 0.000000 1.000000
vn 0.000000 0.000000 1.000000
vn 0.000000 0.000000 1.000000
vn 0.000000 0.000000 1.000000
vn 0.000000 0.000000 1.000000
vn 0.000000 0.000000 1.000000
vn 0.000000 1.000000 0.000000
vn 0.447214 0.894427 0.000000
vn 0.447214 0.894427 0.000000
vn 0.000000 1.000000 0.000000
vn 0.707107 0.707107 0.000000
vn 0.707107 0.707107 0.000000
vn 0.000000 0.000000 -1.000000
vn 0.000000 0.000000 -1.000000
vn 0.000000 0.000000 -1.000000
vn 0.000000 0.000000 -1.000000
vn 0.000000 0.000000 -1.000000
vn 0.000000 0.000000 -1.000000
vn 0.000000 -1.000000 0.000000
vn 0.000000 -1.000000 0.000000
vn 0.000000 -1.000000 0.000000
vn 0.000000 -1.000000 0.000000
vn 0.000000 -1.000000 0.000000
vn 0.000000 -1.000000 0.000000
vn 1.000000 0.000000 0.000000
vn 1.000000 0.000000 0.000000
vn 1.000000 0.000000 0.000000
vn 1.000000 0.000000 0.000000
vn -1.000000 0.000000 0.000000
vn -1.000000 0.000000 0.000000
vn -1.000000 0.000000 0.000000
vn -1.000000 0.000000 0.000000
vn 0.000000 0.000000 1.000000
vn 0.000000 0.000000 1.000000
vn 0.000000 0.000000 1.000000
vn 0.000000 0.000000 1.000000
vn 0.000000 1.000000 0.000000
vn 0.000000 1.000000 0.000000
vn 0.000000 1.000000 0.000000
vn 0.000000 1.000000 0.000000
vn 0.000000 0.000000 -1.000000
vn 0.000000 0.000000 -1.000000
vn 0.000000 0.000000 -1.000000
vn 0.000000 0.000000 -1.000000
vn 0.000000 -1.000000 0.000000
vn 0.000000 -1.000000 0.000000
vn 0.000000 -1.000000 0.000000
vn 0.000000 -1.000000 0.000000
vn 1.000000 0.000000 0.000000
vn 1.000000 0.000000 0.000000
vn 1.000000 0.000000 0.000000
vn 1.000000 0.000000 0.000000
vn -1.000000 0.000000 0.000000
vn -1.000000 0.000000 0.000000
vn -1.000000 0.000000 0.000000
vn -1.000000 0.000000 0.000000
vn 0.000000 0.000000 1.000000
vn 0.000000 0.000000 1.000000
vn 0.000000 0.000000 1.000000
vn 0.000000 0.000000 1.000000
vn 0.000000 1.000000 0.000000
vn 0.000000 1.000000 0.000000
vn 0.000000 1.000000 0.000000
vn 0.000000 1.000000 0.000000
vn 0.000000 0.000000 -1.000000
vn 0.000000 0.000000 -1.000000
vn 0.000000 0.000000 -1.000000
vn 0.000000 0.000000 -1.000000
vn 0.000000 -1.000000 0.000000
vn 0.000000 -1.000000 0.000000
vn 0.000000 -1.000000 0.000000
vn 0.000000 -1.000000 0.000000
vn 1.000000 0.000000 0.000000
vn 1.000000 0.000000 0.000000
vn 1.000000 0.000000 0.000000
vn 1.000000 0.000000 0.000000
vn -1.000000 0.000000 0.000000
vn -1.000000 0.000000 0.000000
vn -1.000000 0.000000 0.000000
vn -1.000000 0.000000 0.000000
vn 0.000000 0.000000 1.000000
vn 0.000000 0.000000 1.000000
vn 0.000000 0.000000 1.000000
vn 0.000000 0.000000 1.000000
vn 0.000000 1.000000 0.000000
vn 0.000000 1.000000 0.000000
vn 0.000000 1.000000 0.000000
vn 0.000000 1.000000 0.000000
vn 0.000000 0.000000 -1.000000
vn 0.000000 0.000000 -1.000000
vn 0.000000 0.000000 -1.000000
vn 0.000000 0.000000 -1.000000
vn 0.000000 -1.000000 0.000000
vn 0.000000 -1.000000 0.000000
vn 0.000000 -1.000000 0.000000
vn 0.000000 -1.000000 0.000000
vn 1.000000 0.000000 0.000000
vn 1.000000 0.000000 0.000000
vn 1.000000 0.000000 0.000000
vn 1.000000 0.000000 0.000000
vn -1.000000 0.000000 0.000000
vn -1.000000 0.000000 0.000000
vn -1.000000 0.000000 0.000000
vn -1.000000 0.000000 0.000000
s 1
f 1/1/1 2/2/2 5/5/3 4/4/4
f 2/2/2 3/3/5 6/6/6 5/5/3
s 2
f 4/4/7 5/5/8 8/8/9 7/7/10
f 5/5/8 6/6/11 9/9/12 8/8/9
f 7/7/10 8/8/9 26/38/13 11/11/14 10/10/15
f 8/8/9 9/9/12 25/36/16 26/38/13
s 3
f 10/10/17 11/11/18 14/14/19 13/13/20
f 11/11/18 12/12/21 15/15/22 14/14/19
s 4
f 13/13/23 14/14/24 17/17/25 16/16/26
f 14/14/24 15/15/27 18/18/28 17/17/25
f 16/16/26 17/17/25 2/20/29 1/19/30
f 17/17/25 18/18/28 3/21/31 2/20/29
s 5
f 20/30/32 23/34/33 24/35/34 22/33/35
s off
f 3/3/36 18/23/37 9/25/38 6/6/39
s 6
f 13/26/40 16/27/41 7/29/42 10/28/43
f 16/27/41 1/1/44 4/4/45 7/29/42
s off
f 18/23/46 15/22/47 19/31/48 23/34/49 20/30/50
f 15/22/51 12/24/52 21/32/53 19/31/54
s 7
f 24/35/55 25/37/56 9/25/57 22/33/58
s off
f 9/25/59 18/23/60 20/30/61 22/33/62
s 5
f 24/35/34 23/34/33 19/31/63 21/32/64
s 7
f 12/24/65 25/37/56 24/35/55 21/32/66
s 2
f 26/38/13 25/36/16 12/12/67 11/11/14
s 8
f 27/39/68 28/40/69 31/41/70 30/42/71
f 28/40/69 29/43/72 32/44/73 31/41/70
s 9
f 30/42/74 31/41/75 34/45/76 33/46/77
f 31/41/75 32/44/78 35/47/79 34/45/76
s 10
f 33/46/80 34/45/81 37/48/82 36/49/83
f 34/45/81 35/47/84 38/50/85 37/48/82
s 11
f 36/49/86 37/48/87 28/51/88 27/52/89
f 37/48/87 38/50/90 29/53/91 28/51/88
s off
f 29/43/92 38/54/93 35/55/94 32/44/95
f 36/56/96 27/39/97 30/42/98 33/57/99
f 39/58/100 40/59/101 42/60/102 41/61/103
f 41/61/104 42/60/105 44/62/106 43/63/107
f 43/63/108 44/62/109 46/64/110 45/65/111
f 45/65/112 46/64/113 40/66/114 39/67/115
f 40/59/116 46/68/117 44/69/118 42/60/119
f 45/70/120 39/58/121 41/61/122 43/71/123
f 47/72/124 48/73/125 50/74/126 49/75/127
f 49/75/128 50/74/129 52/76/130 51/77/131
f 51/77/132 52/76/133 54/78/134 53/79/135
f 53/79/136 54/78/137 48/80/138 47/81/139
f 48/73/140 54/82/141 52/83/142 50/74/143
f 53/84/144 47/72/145 49/75/146 51/85/147
f 55/86/148 56/87/149 58/88/150 57/89/151
f 57/89/152 58/88/153 60/90/154 59/91/155
f 59/91/156 60/90/157 62/92/158 61/93/159
f 61/93/160 62/92/161 56/94/162 55/95/163
f 56/87/164 62/96/165 60/97/166 58/88/167
f 61/98/168 55/86/169 57/89/170 59/99/171
