# This file uses centimeters as units for non-parametric coordinates.

mtllib factory_v1.mtl
g default
v -10.000000 -1.000000 4.000000
v -6.000000 -1.000000 4.000000
v -2.000000 -1.000000 4.000000
v 2.000000 -1.000000 4.000000
v 6.000000 -1.000000 4.000000
v 10.000000 -1.000000 4.000000
v -10.000000 6.000000 4.000000
v -6.000000 6.000000 4.000000
v -2.000000 6.000000 4.000000
v 2.000000 6.000000 4.000000
v 6.000000 6.000000 4.000000
v 10.000000 6.000000 4.000000
v -10.000000 6.000000 -4.000000
v -6.000000 6.000000 -4.000000
v -2.000000 6.000000 -4.000000
v 2.000000 6.000000 -4.000000
v 6.000000 6.000000 -4.000000
v 10.000000 6.000000 -4.000000
v -10.000000 -1.000000 -4.000000
v -6.000000 -1.000000 -4.000000
v -2.000000 -1.000000 -4.000000
v 2.000000 -1.000000 -4.000000
v 6.000000 -1.000000 -4.000000
v 10.000000 -1.000000 -4.000000
v -6.000000 7.500000 4.000000
v -6.000000 7.500000 -4.000000
v -2.000000 7.500000 4.000000
v -2.000000 7.500000 -4.000000
v 2.000000 7.500000 4.000000
v 2.000000 7.500000 -4.000000
v 6.000000 7.500000 4.000000
v 6.000000 7.500000 -4.000000
v 10.000000 7.500000 4.000000
v 10.000000 7.500000 -4.000000
v 3.500000 -1.000000 -4.000000
v 8.500000 -1.000000 -4.000000
v 3.500000 13.000000 -4.000000
v 8.500000 13.000000 -4.000000
v 3.500000 13.000000 -9.000000
v 8.500000 13.000000 -9.000000
v 3.500000 -1.000000 -9.000000
v 8.500000 -1.000000 -9.000000
v -3.042893 6.000000 -1.957107
v -3.750000 6.000000 -2.250000
v -4.457107 6.000000 -1.957107
v -4.750000 6.000000 -1.250000
v -4.457107 6.000000 -0.542893
v -3.750000 6.000000 -0.250000
v -3.042893 6.000000 -0.542893
v -2.750000 6.000000 -1.250000
v -3.199223 18.000000 -1.800777
v -3.750000 18.000000 -2.028916
v -4.300777 18.000000 -1.800777
v -4.528916 18.000000 -1.250000
v -4.300777 18.000000 -0.699223
v -3.750000 18.000000 -0.471084
v -3.199223 18.000000 -0.699223
v -2.971084 18.000000 -1.250000
v -3.750000 6.000000 -1.250000
v -3.750000 18.000000 -1.250000
v -6.542893 6.000000 -1.957107
v -7.250000 6.000000 -2.250000
v -7.957107 6.000000 -1.957107
v -8.250000 6.000000 -1.250000
v -7.957107 6.000000 -0.542893
v -7.250000 6.000000 -0.250000
v -6.542893 6.000000 -0.542893
v -6.250000 6.000000 -1.250000
v -6.699223 18.000000 -1.800777
v -7.250000 18.000000 -2.028916
v -7.800777 18.000000 -1.800777
v -8.028916 18.000000 -1.250000
v -7.800777 18.000000 -0.699223
v -7.250000 18.000000 -0.471084
v -6.699223 18.000000 -0.699223
v -6.471084 18.000000 -1.250000
v -7.250000 6.000000 -1.250000
v -7.250000 18.000000 -1.250000
vt 0.375000 0.000000
vt 0.425000 0.000000
vt 0.475000 0.000000
vt 0.525000 0.000000
vt 0.575000 0.000000
vt 0.625000 0.000000
vt 0.379381 0.246762
vt 0.425313 0.242587
vt 0.475000 0.241306
vt 0.525000 0.242099
vt 0.575000 0.242090
vt 0.625000 0.250000
vt 0.375313 0.508439
vt 0.425043 0.507199
vt 0.475000 0.507948
vt 0.525000 0.507355
vt 0.575000 0.507205
vt 0.625000 0.500000
vt 0.375000 0.750000
vt 0.425000 0.750000
vt 0.475000 0.750000
vt 0.525000 0.750000
vt 0.575000 0.750000
vt 0.625000 0.750000
vt 0.375000 1.000000
vt 0.425000 1.000000
vt 0.475000 1.000000
vt 0.525000 1.000000
vt 0.575000 1.000000
vt 0.625000 1.000000
vt 0.875000 0.000000
vt 0.875000 0.250000
vt 0.125000 0.000000
vt 0.127191 0.248381
vt 0.425000 0.250000
vt 0.425000 0.500000
vt 0.475000 0.250000
vt 0.475000 0.500000
vt 0.525000 0.250000
vt 0.525000 0.500000
vt 0.575000 0.250000
vt 0.575000 0.500000
vt 0.625000 0.250000
vt 0.625000 0.500000
vt 0.375000 0.000000
vt 0.625000 0.000000
vt 0.625000 0.250000
vt 0.375000 0.250000
vt 0.625000 0.500000
vt 0.375000 0.500000
vt 0.625000 0.750000
vt 0.375000 0.750000
vt 0.625000 1.000000
vt 0.375000 1.000000
vt 0.875000 0.000000
vt 0.875000 0.250000
vt 0.125000 0.000000
vt 0.125000 0.250000
vt 0.375000 0.312500
vt 0.406250 0.312500
vt 0.406250 0.688440
vt 0.375000 0.688440
vt 0.437500 0.312500
vt 0.437500 0.688440
vt 0.468750 0.312500
vt 0.468750 0.688440
vt 0.500000 0.312500
vt 0.500000 0.688440
vt 0.531250 0.312500
vt 0.531250 0.688440
vt 0.562500 0.312500
vt 0.562500 0.688440
vt 0.593750 0.312500
vt 0.593750 0.688440
vt 0.625000 0.312500
vt 0.625000 0.688440
vt 0.500000 0.000000
vt 0.610485 0.045765
vt 0.500000 0.150000
vt 0.389515 0.045765
vt 0.343750 0.156250
vt 0.389515 0.266735
vt 0.500000 0.312500
vt 0.610485 0.266735
vt 0.656250 0.156250
vt 0.610485 0.954235
vt 0.500000 1.000000
vt 0.500000 0.837500
vt 0.389515 0.954235
vt 0.343750 0.843750
vt 0.389515 0.733265
vt 0.500000 0.687500
vt 0.610485 0.733265
vt 0.656250 0.843750
vt 0.375000 0.312500
vt 0.406250 0.312500
vt 0.406250 0.688440
vt 0.375000 0.688440
vt 0.437500 0.312500
vt 0.437500 0.688440
vt 0.468750 0.312500
vt 0.468750 0.688440
vt 0.500000 0.312500
vt 0.500000 0.688440
vt 0.531250 0.312500
vt 0.531250 0.688440
vt 0.562500 0.312500
vt 0.562500 0.688440
vt 0.593750 0.312500
vt 0.593750 0.688440
vt 0.625000 0.312500
vt 0.625000 0.688440
vt 0.500000 0.000000
vt 0.610485 0.045765
vt 0.500000 0.150000
vt 0.389515 0.045765
vt 0.343750 0.156250
vt 0.389515 0.266735
vt 0.500000 0.312500
vt 0.610485 0.266735
vt 0.656250 0.156250
vt 0.610485 0.954235
vt 0.500000 1.000000
vt 0.500000 0.837500
vt 0.389515 0.954235
vt 0.343750 0.843750
vt 0.389515 0.733265
vt 0.500000 0.687500
vt 0.610485 0.733265
vt 0.656250 0.843750
vn 0.000000 0.000000 1.000000
vn 0.000000 0.000000 1.000000
vn 0.000000 0.000000 1.000000
vn 0.000000 0.000000 1.000000
vn 0.000000 0.000000 1.000000
vn 0.000000 0.000000 1.000000
vn 0.000000 0.000000 1.000000
vn 0.000000 0.000000 1.000000
vn 0.000000 0.000000 1.000000
vn 0.000000 0.000000 1.000000
vn 0.000000 0.000000 1.000000
vn 0.000000 0.000000 1.000000
vn -0.351123 0.936329 0.000000
vn -0.351123 0.936329 0.000000
vn -0.351123 0.936329 0.000000
vn -0.351123 0.936329 0.000000
vn -0.351123 0.936329 0.000000
vn -0.351123 0.936329 0.000000
vn -0.351123 0.936329 0.000000
vn -0.351123 0.936329 0.000000
vn -0.351123 0.936329 0.000000
vn -0.351123 0.936329 0.000000
vn -0.351123 0.936329 0.000000
vn -0.351123 0.936329 0.000000
vn -0.351123 0.936329 0.000000
vn -0.351123 0.936329 0.000000
vn -0.351123 0.936329 0.000000
vn -0.351123 0.936329 0.000000
vn -0.351123 0.936329 0.000000
vn -0.351123 0.936329 0.000000
vn -0.351123 0.936329 0.000000
vn -0.351123 0.936329 0.000000
vn 0.000000 0.000000 -1.000000
vn 0.000000 0.000000 -1.000000
vn 0.000000 0.000000 -1.000000
vn 0.000000 0.000000 -1.000000
vn 0.000000 0.000000 -1.000000
vn 0.000000 0.000000 -1.000000
vn 0.000000 0.000000 -1.000000
vn 0.000000 0.000000 -1.000000
vn 0.000000 0.000000 -1.000000
vn 0.000000 0.000000 -1.000000
vn 0.000000 0.000000 -1.000000
vn 0.000000 0.000000 -1.000000
vn 0.000000 -1.000000 0.000000
vn 0.000000 -1.000000 0.000000
vn 0.000000 -1.000000 0.000000
vn 0.000000 -1.000000 0.000000
vn 0.000000 -1.000000 0.000000
vn 0.000000 -1.000000 0.000000
vn 0.000000 -1.000000 0.000000
vn 0.000000 -1.000000 0.000000
vn 0.000000 -1.000000 0.000000
vn 0.000000 -1.000000 0.000000
vn 0.000000 -1.000000 0.000000
vn 0.000000 -1.000000 0.000000
vn 1.000000 0.000000 0.000000
vn 1.000000 0.000000 0.000000
vn 1.000000 0.000000 0.000000
vn 1.000000 0.000000 0.000000
vn -1.000000 0.000000 0.000000
vn -1.000000 0.000000 0.000000
vn -1.000000 0.000000 0.000000
vn -1.000000 0.000000 0.000000
vn 0.000000 0.000000 1.000000
vn 0.000000 0.000000 1.000000
vn 0.000000 0.000000 1.000000
vn 1.000000 0.000000 0.000000
vn 1.000000 0.000000 0.000000
vn 1.000000 0.000000 0.000000
vn 1.000000 0.000000 0.000000
vn 0.000000 0.000000 -1.000000
vn 0.000000 0.000000 -1.000000
vn 0.000000 0.000000 -1.000000
vn 0.000000 0.000000 1.000000
vn 0.000000 0.000000 1.000000
vn 0.000000 0.000000 1.000000
vn 1.000000 0.000000 0.000000
vn 1.000000 0.000000 0.000000
vn 1.000000 0.000000 0.000000
vn 1.000000 0.000000 0.000000
vn 0.000000 0.000000 -1.000000
vn 0.000000 0.000000 -1.000000
vn 0.000000 0.000000 -1.000000
vn 0.000000 0.000000 1.000000
vn 0.000000 0.000000 1.000000
vn 0.000000 0.000000 1.000000
vn 1.000000 0.000000 0.000000
vn 1.000000 0.000000 0.000000
vn 1.000000 0.000000 0.000000
vn 1.000000 0.000000 0.000000
vn 0.000000 0.000000 -1.000000
vn 0.000000 0.000000 -1.000000
vn 0.000000 0.000000 -1.000000
vn 0.000000 0.000000 1.000000
vn 0.000000 0.000000 1.000000
vn 0.000000 0.000000 1.000000
vn 1.000000 0.000000 0.000000
vn 1.000000 0.000000 0.000000
vn 1.000000 0.000000 0.000000
vn 1.000000 0.000000 0.000000
vn 0.000000 0.000000 -1.000000
vn 0.000000 0.000000 -1.000000
vn 0.000000 0.000000 -1.000000
vn 0.000000 0.000000 1.000000
vn 0.000000 0.000000 1.000000
vn 0.000000 0.000000 1.000000
vn 1.000000 0.000000 0.000000
vn 1.000000 0.000000 0.000000
vn 1.000000 0.000000 0.000000
vn 1.000000 0.000000 0.000000
vn 0.000000 0.000000 -1.000000
vn 0.000000 0.000000 -1.000000
vn 0.000000 0.000000 -1.000000
vn 0.000000 0.000000 1.000000
vn 0.000000 0.000000 1.000000
vn 0.000000 0.000000 1.000000
vn 0.000000 0.000000 1.000000
vn 0.000000 1.000000 0.000000
vn 0.000000 1.000000 0.000000
vn 0.000000 1.000000 0.000000
vn 0.000000 1.000000 0.000000
vn 0.000000 0.000000 -1.000000
vn 0.000000 0.000000 -1.000000
vn 0.000000 0.000000 -1.000000
vn 0.000000 0.000000 -1.000000
vn 0.000000 -1.000000 0.000000
vn 0.000000 -1.000000 0.000000
vn 0.000000 -1.000000 0.000000
vn 0.000000 -1.000000 0.000000
vn 1.000000 0.000000 0.000000
vn 1.000000 0.000000 0.000000
vn 1.000000 0.000000 0.000000
vn 1.000000 0.000000 0.000000
vn -1.000000 0.000000 0.000000
vn -1.000000 0.000000 0.000000
vn -1.000000 0.000000 0.000000
vn -1.000000 0.000000 0.000000
vn 0.382628 0.017019 -0.923746
vn 0.382628 0.017019 -0.923746
vn 0.382628 0.017019 -0.923746
vn 0.382628 0.017019 -0.923746
vn -0.382628 0.017019 -0.923746
vn -0.382628 0.017019 -0.923746
vn -0.382628 0.017019 -0.923746
vn -0.382628 0.017019 -0.923746
vn -0.923746 0.017019 -0.382628
vn -0.923746 0.017019 -0.382628
vn -0.923746 0.017019 -0.382628
vn -0.923746 0.017019 -0.382628
vn -0.923746 0.017019 0.382628
vn -0.923746 0.017019 0.382628
vn -0.923746 0.017019 0.382628
vn -0.923746 0.017019 0.382628
vn -0.382628 0.017019 0.923746
vn -0.382628 0.017019 0.923746
vn -0.382628 0.017019 0.923746
vn -0.382628 0.017019 0.923746
vn 0.382628 0.017019 0.923746
vn 0.382628 0.017019 0.923746
vn 0.382628 0.017019 0.923746
vn 0.382628 0.017019 0.923746
vn 0.923746 0.017019 0.382628
vn 0.923746 0.017019 0.382628
vn 0.923746 0.017019 0.382628
vn 0.923746 0.017019 0.382628
vn 0.923746 0.017019 -0.382628
vn 0.923746 0.017019 -0.382628
vn 0.923746 0.017019 -0.382628
vn 0.923746 0.017019 -0.382628
vn 0.000000 -1.000000 0.000000
vn 0.000000 -1.000000 0.000000
vn 0.000000 -1.000000 0.000000
vn 0.000000 -1.000000 0.000000
vn 0.000000 -1.000000 0.000000
vn 0.000000 -1.000000 0.000000
vn 0.000000 -1.000000 0.000000
vn 0.000000 -1.000000 0.000000
vn 0.000000 -1.000000 0.000000
vn 0.000000 1.000000 0.000000
vn 0.000000 1.000000 0.000000
vn 0.000000 1.000000 0.000001
vn 0.000000 1.000000 0.000000
vn 0.000000 1.000000 0.000000
vn 0.000000 1.000000 0.000000
vn 0.000000 1.000000 0.000000
vn 0.000000 1.000000 0.000002
vn 0.000000 1.000000 0.000002
vn 0.382628 0.017019 -0.923746
vn 0.382628 0.017019 -0.923746
vn 0.382628 0.017019 -0.923746
vn 0.382628 0.017019 -0.923746
vn -0.382628 0.017019 -0.923746
vn -0.382628 0.017019 -0.923746
vn -0.382628 0.017019 -0.923746
vn -0.382628 0.017019 -0.923746
vn -0.923746 0.017019 -0.382628
vn -0.923746 0.017019 -0.382628
vn -0.923746 0.017019 -0.382628
vn -0.923746 0.017019 -0.382628
vn -0.923746 0.017019 0.382628
vn -0.923746 0.017019 0.382628
vn -0.923746 0.017019 0.382628
vn -0.923746 0.017019 0.382628
vn -0.382628 0.017019 0.923746
vn -0.382628 0.017019 0.923746
vn -0.382628 0.017019 0.923746
vn -0.382628 0.017019 0.923746
vn 0.382628 0.017019 0.923746
vn 0.382628 0.017019 0.923746
vn 0.382628 0.017019 0.923746
vn 0.382628 0.017019 0.923746
vn 0.923746 0.017019 0.382628
vn 0.923746 0.017019 0.382628
vn 0.923746 0.017019 0.382628
vn 0.923746 0.017019 0.382628
vn 0.923746 0.017019 -0.382628
vn 0.923746 0.017019 -0.382628
vn 0.923746 0.017019 -0.382628
vn 0.923746 0.017019 -0.382628
vn 0.000000 -1.000000 0.000000
vn 0.000000 -1.000000 0.000000
vn 0.000000 -1.000000 0.000000
vn 0.000000 -1.000000 0.000000
vn 0.000000 -1.000000 0.000000
vn 0.000000 -1.000000 0.000000
vn 0.000000 -1.000000 0.000000
vn 0.000000 -1.000000 0.000000
vn 0.000000 -1.000000 0.000000
vn 0.000000 1.000000 0.000000
vn 0.000000 1.000000 0.000000
vn 0.000000 1.000000 0.000000
vn 0.000000 1.000000 0.000000
vn 0.000000 1.000000 0.000000
vn 0.000000 1.000000 0.000000
vn 0.000000 1.000000 0.000000
vn 0.000000 1.000000 0.000000
vn 0.000000 1.000000 0.000000
s 1
g factory_v1
usemtl lambert5SG
f 1/1/1 2/2/2 8/8/3 7/7/4
f 2/2/2 3/3/5 9/9/6 8/8/3
f 3/3/5 4/4/7 10/10/8 9/9/6
f 4/4/7 5/5/9 11/11/10 10/10/8
f 5/5/9 6/6/11 12/12/12 11/11/10
s off
f 7/7/13 25/35/14 26/36/15 13/13/16
f 8/8/17 27/37/18 28/38/19 14/14/20
f 9/9/21 29/39/22 30/40/23 15/15/24
f 10/10/25 31/41/26 32/42/27 16/16/28
f 11/11/29 33/43/30 34/44/31 17/17/32
s 2
f 13/13/33 14/14/34 20/20/35 19/19/36
f 14/14/34 15/15/37 21/21/38 20/20/35
f 15/15/37 16/16/39 22/22/40 21/21/38
f 16/16/39 17/17/41 23/23/42 22/22/40
f 17/17/41 18/18/43 24/24/44 23/23/42
s 3
f 19/19/45 20/20/46 2/26/47 1/25/48
f 20/20/46 21/21/49 3/27/50 2/26/47
f 21/21/49 22/22/51 4/28/52 3/27/50
f 22/22/51 23/23/53 5/29/54 4/28/52
f 23/23/53 24/24/55 6/30/56 5/29/54
s off
f 6/6/57 24/31/58 18/32/59 12/12/60
f 19/33/61 1/1/62 7/7/63 13/34/64
f 7/7/65 8/8/66 25/35/67
f 8/8/68 14/14/69 26/36/70 25/35/71
f 14/14/72 13/13/73 26/36/74
f 8/8/75 9/9/76 27/37/77
f 9/9/78 15/15/79 28/38/80 27/37/81
f 15/15/82 14/14/83 28/38/84
f 9/9/85 10/10/86 29/39/87
f 10/10/88 16/16/89 30/40/90 29/39/91
f 16/16/92 15/15/93 30/40/94
f 10/10/95 11/11/96 31/41/97
f 11/11/98 17/17/99 32/42/100 31/41/101
f 17/17/102 16/16/103 32/42/104
f 11/11/105 12/12/106 33/43/107
f 12/12/108 18/18/109 34/44/110 33/43/111
f 18/18/112 17/17/113 34/44/114
f 35/45/115 36/46/116 38/47/117 37/48/118
f 37/48/119 38/47/120 40/49/121 39/50/122
f 39/50/123 40/49/124 42/51/125 41/52/126
f 41/52/127 42/51/128 36/53/129 35/54/130
f 36/46/131 42/55/132 40/56/133 38/47/134
f 41/57/135 35/45/136 37/48/137 39/58/138
usemtl lambert4SG
f 43/59/139 44/60/140 52/61/141 51/62/142
f 44/60/143 45/63/144 53/64/145 52/61/146
f 45/63/147 46/65/148 54/66/149 53/64/150
f 46/65/151 47/67/152 55/68/153 54/66/154
f 47/67/155 48/69/156 56/70/157 55/68/158
f 48/69/159 49/71/160 57/72/161 56/70/162
f 49/71/163 50/73/164 58/74/165 57/72/166
f 50/73/167 43/75/168 51/76/169 58/74/170
s 4
f 44/77/171 43/78/172 59/79/173
f 45/80/174 44/77/171 59/79/173
f 46/81/175 45/80/174 59/79/173
f 47/82/176 46/81/175 59/79/173
f 48/83/177 47/82/176 59/79/173
f 49/84/178 48/83/177 59/79/173
f 50/85/179 49/84/178 59/79/173
f 43/78/172 50/85/179 59/79/173
s 5
f 51/86/180 52/87/181 60/88/182
f 52/87/181 53/89/183 60/88/182
f 53/89/183 54/90/184 60/88/182
f 54/90/184 55/91/185 60/88/182
f 55/91/185 56/92/186 60/88/182
f 56/92/186 57/93/187 60/88/182
f 57/93/187 58/94/188 60/88/182
f 58/94/188 51/86/180 60/88/182
s off
f 61/95/189 62/96/190 70/97/191 69/98/192
f 62/96/193 63/99/194 71/100/195 70/97/196
f 63/99/197 64/101/198 72/102/199 71/100/200
f 64/101/201 65/103/202 73/104/203 72/102/204
f 65/103/205 66/105/206 74/106/207 73/104/208
f 66/105/209 67/107/210 75/108/211 74/106/212
f 67/107/213 68/109/214 76/110/215 75/108/216
f 68/109/217 61/111/218 69/112/219 76/110/220
s 6
f 62/113/221 61/114/222 77/115/223
f 63/116/224 62/113/221 77/115/223
f 64/117/225 63/116/224 77/115/223
f 65/118/226 64/117/225 77/115/223
f 66/119/227 65/118/226 77/115/223
f 67/120/228 66/119/227 77/115/223
f 68/121/229 67/120/228 77/115/223
f 61/114/222 68/121/229 77/115/223
s 7
f 69/122/230 70/123/231 78/124/232
f 70/123/231 71/125/233 78/124/232
f 71/125/233 72/126/234 78/124/232
f 72/126/234 73/127/235 78/124/232
f 73/127/235 74/128/236 78/124/232
f 74/128/236 75/129/237 78/124/232
f 75/129/237 76/130/238 78/124/232
f 76/130/238 69/122/230 78/124/232
